<?xml version="1.0" standalone="no"?><svg xmlns="http://www.w3.org/2000/svg" viewBox="0 0 1440 320"><path fill="#273036" fill-opacity="1" d="M0,256L26.7,266.7C53.3,277,107,299,160,282.7C213.3,267,267,213,320,208C373.3,203,427,245,480,272C533.3,299,587,309,640,314.7C693.3,320,747,320,800,314.7C853.3,309,907,299,960,250.7C1013.3,203,1067,117,1120,112C1173.3,107,1227,181,1280,192C1333.3,203,1387,149,1413,122.7L1440,96L1440,320L1413.3,320C1386.7,320,1333,320,1280,320C1226.7,320,1173,320,1120,320C1066.7,320,1013,320,960,320C906.7,320,853,320,800,320C746.7,320,693,320,640,320C586.7,320,533,320,480,320C426.7,320,373,320,320,320C266.7,320,213,320,160,320C106.7,320,53,320,27,320L0,320Z"></path></svg>